<mxfile host="app.diagrams.net" agent="Mozilla/5.0 (Windows NT 10.0; Win64; x64) AppleWebKit/537.36 (KHTML, like Gecko) Chrome/130.0.0.0 Safari/537.36 Edg/130.0.0.0" version="24.8.4">
  <diagram id="wFE0QG_FPsp0jaGvCLVb" name="Page-1">
    <mxGraphModel dx="2009" dy="1305" grid="1" gridSize="10" guides="1" tooltips="1" connect="1" arrows="1" fold="1" page="1" pageScale="1" pageWidth="850" pageHeight="1100" math="0" shadow="0">
      <root>
        <mxCell id="0" />
        <mxCell id="1" parent="0" />
        <mxCell id="0L0Ir-lksVrym1sluejJ-3" value="" style="html=1;whiteSpace=wrap;rounded=1;fillColor=#a1a1a1;sketch=1;curveFitting=1;jiggle=2;glass=1;shadow=1;fontFamily=Georgia;" parent="1" vertex="1">
          <mxGeometry x="20" y="10" width="930" height="660" as="geometry" />
        </mxCell>
        <mxCell id="0L0Ir-lksVrym1sluejJ-4" value="" style="html=1;whiteSpace=wrap;rounded=1;shadow=1;fillColor=#a1a1a1;opacity=40;fontFamily=Georgia;" parent="1" vertex="1">
          <mxGeometry x="30" y="50" width="730" height="70" as="geometry" />
        </mxCell>
        <mxCell id="0L0Ir-lksVrym1sluejJ-5" value="&lt;font style=&quot;font-size: 21px;&quot;&gt;&lt;b style=&quot;font-size: 21px;&quot;&gt;Presentation Layer&lt;/b&gt;&lt;/font&gt;" style="text;html=1;align=center;verticalAlign=middle;resizable=0;points=[];autosize=1;strokeColor=none;fillColor=none;fontFamily=Georgia;fontSize=21;" parent="1" vertex="1">
          <mxGeometry x="307.5" y="65" width="230" height="40" as="geometry" />
        </mxCell>
        <mxCell id="0L0Ir-lksVrym1sluejJ-11" value="" style="html=1;whiteSpace=wrap;rounded=1;shadow=1;fillColor=#a1a1a1;opacity=50;fontFamily=Georgia;" parent="1" vertex="1">
          <mxGeometry x="780" y="50" width="130" height="600" as="geometry" />
        </mxCell>
        <mxCell id="0L0Ir-lksVrym1sluejJ-12" value="&lt;font style=&quot;font-size: 21px;&quot;&gt;&lt;b style=&quot;font-size: 21px;&quot;&gt;Common&amp;nbsp;&lt;/b&gt;&lt;/font&gt;&lt;div&gt;&lt;font style=&quot;font-size: 21px;&quot;&gt;&lt;b style=&quot;font-size: 21px;&quot;&gt;Service &lt;br style=&quot;font-size: 21px;&quot;&gt;Library&lt;/b&gt;&lt;/font&gt;&lt;/div&gt;" style="text;html=1;align=center;verticalAlign=middle;resizable=0;points=[];autosize=1;strokeColor=none;fillColor=none;fontFamily=Georgia;fontSize=21;" parent="1" vertex="1">
          <mxGeometry x="780" y="290" width="130" height="90" as="geometry" />
        </mxCell>
        <mxCell id="0L0Ir-lksVrym1sluejJ-18" value="" style="html=1;whiteSpace=wrap;rounded=1;shadow=1;fillColor=#a1a1a1;opacity=60;fontFamily=Georgia;" parent="1" vertex="1">
          <mxGeometry x="30" y="130" width="120" height="410" as="geometry" />
        </mxCell>
        <mxCell id="0L0Ir-lksVrym1sluejJ-19" value="&lt;font style=&quot;font-size: 21px;&quot;&gt;&lt;b style=&quot;font-size: 21px;&quot;&gt;DTO&lt;br style=&quot;font-size: 21px;&quot;&gt;Component&lt;br style=&quot;font-size: 21px;&quot;&gt;Library&lt;/b&gt;&lt;/font&gt;" style="text;html=1;align=center;verticalAlign=middle;resizable=0;points=[];autosize=1;strokeColor=none;fillColor=none;fontFamily=Georgia;fontSize=21;" parent="1" vertex="1">
          <mxGeometry x="15" y="280" width="150" height="90" as="geometry" />
        </mxCell>
        <mxCell id="0L0Ir-lksVrym1sluejJ-20" value="" style="html=1;whiteSpace=wrap;rounded=1;shadow=1;fillColor=#a1a1a1;opacity=40;fontFamily=Georgia;fontSize=21;" parent="1" vertex="1">
          <mxGeometry x="157.5" y="130" width="342.5" height="80" as="geometry" />
        </mxCell>
        <mxCell id="0L0Ir-lksVrym1sluejJ-21" value="" style="html=1;whiteSpace=wrap;rounded=1;shadow=1;fillColor=#a1a1a1;opacity=60;fontFamily=Georgia;" parent="1" vertex="1">
          <mxGeometry x="510" y="130" width="250" height="80" as="geometry" />
        </mxCell>
        <mxCell id="0L0Ir-lksVrym1sluejJ-22" value="&lt;font style=&quot;font-size: 21px;&quot;&gt;&lt;b style=&quot;font-size: 21px;&quot;&gt;Application Layer&lt;/b&gt;&lt;/font&gt;" style="text;html=1;align=center;verticalAlign=middle;resizable=0;points=[];autosize=1;strokeColor=none;fillColor=none;fontFamily=Georgia;fontSize=21;" parent="1" vertex="1">
          <mxGeometry x="218.75" y="150" width="220" height="40" as="geometry" />
        </mxCell>
        <mxCell id="0L0Ir-lksVrym1sluejJ-23" value="&lt;font style=&quot;font-size: 21px;&quot;&gt;&lt;b style=&quot;font-size: 21px;&quot;&gt;External API Layer&lt;/b&gt;&lt;/font&gt;" style="text;html=1;align=center;verticalAlign=middle;resizable=0;points=[];autosize=1;strokeColor=none;fillColor=none;fontFamily=Georgia;fontSize=21;" parent="1" vertex="1">
          <mxGeometry x="520" y="150" width="230" height="40" as="geometry" />
        </mxCell>
        <mxCell id="0L0Ir-lksVrym1sluejJ-24" value="" style="html=1;whiteSpace=wrap;rounded=1;shadow=1;fillColor=#a1a1a1;opacity=70;fontFamily=Georgia;" parent="1" vertex="1">
          <mxGeometry x="157.5" y="220" width="492.5" height="100" as="geometry" />
        </mxCell>
        <mxCell id="0L0Ir-lksVrym1sluejJ-25" value="" style="html=1;whiteSpace=wrap;rounded=1;shadow=1;fillColor=#a1a1a1;opacity=70;fontFamily=Georgia;" parent="1" vertex="1">
          <mxGeometry x="157.5" y="330" width="492.5" height="100" as="geometry" />
        </mxCell>
        <mxCell id="0L0Ir-lksVrym1sluejJ-26" value="" style="html=1;whiteSpace=wrap;rounded=1;shadow=1;fillColor=#a1a1a1;opacity=60;fontFamily=Georgia;" parent="1" vertex="1">
          <mxGeometry x="670" y="220" width="90" height="320" as="geometry" />
        </mxCell>
        <mxCell id="0L0Ir-lksVrym1sluejJ-27" value="" style="html=1;whiteSpace=wrap;rounded=1;shadow=1;fillColor=#a1a1a1;opacity=70;fontFamily=Georgia;" parent="1" vertex="1">
          <mxGeometry x="340" y="440" width="310" height="100" as="geometry" />
        </mxCell>
        <mxCell id="0L0Ir-lksVrym1sluejJ-28" value="" style="html=1;whiteSpace=wrap;rounded=1;shadow=1;fillColor=#a1a1a1;opacity=50;fontFamily=Georgia;" parent="1" vertex="1">
          <mxGeometry x="85" y="550" width="675" height="100" as="geometry" />
        </mxCell>
        <mxCell id="0L0Ir-lksVrym1sluejJ-29" value="" style="html=1;whiteSpace=wrap;rounded=1;shadow=1;fillColor=#a1a1a1;fontFamily=Georgia;" parent="1" vertex="1">
          <mxGeometry x="30" y="680" width="910" height="70" as="geometry" />
        </mxCell>
        <mxCell id="0L0Ir-lksVrym1sluejJ-30" value="&lt;font style=&quot;font-size: 21px;&quot;&gt;&lt;b style=&quot;font-size: 21px;&quot;&gt;Data&lt;br style=&quot;font-size: 21px;&quot;&gt;Access&lt;br style=&quot;font-size: 21px;&quot;&gt;Layer&lt;/b&gt;&lt;/font&gt;" style="text;html=1;align=center;verticalAlign=middle;resizable=0;points=[];autosize=1;strokeColor=none;fillColor=none;fontFamily=Georgia;fontSize=21;" parent="1" vertex="1">
          <mxGeometry x="372.5" y="555" width="100" height="90" as="geometry" />
        </mxCell>
        <mxCell id="0L0Ir-lksVrym1sluejJ-31" value="&lt;b style=&quot;font-size: 21px;&quot;&gt;&lt;font style=&quot;font-size: 21px;&quot;&gt;General&lt;br style=&quot;font-size: 21px;&quot;&gt;Service&lt;br style=&quot;font-size: 21px;&quot;&gt;Layer&lt;/font&gt;&lt;/b&gt;" style="text;html=1;align=center;verticalAlign=middle;resizable=0;points=[];autosize=1;strokeColor=none;fillColor=none;fontFamily=Georgia;fontSize=21;" parent="1" vertex="1">
          <mxGeometry x="440" y="445" width="110" height="90" as="geometry" />
        </mxCell>
        <mxCell id="0L0Ir-lksVrym1sluejJ-32" value="&lt;b style=&quot;font-size: 21px;&quot;&gt;&lt;font style=&quot;font-size: 21px;&quot;&gt;Business&lt;br style=&quot;font-size: 21px;&quot;&gt;Implementation Layer&lt;/font&gt;&lt;/b&gt;" style="text;html=1;align=center;verticalAlign=middle;resizable=0;points=[];autosize=1;strokeColor=none;fillColor=none;fontFamily=Georgia;fontSize=21;" parent="1" vertex="1">
          <mxGeometry x="280" y="340" width="270" height="60" as="geometry" />
        </mxCell>
        <mxCell id="0L0Ir-lksVrym1sluejJ-33" value="&lt;b style=&quot;font-size: 21px;&quot;&gt;&lt;font style=&quot;font-size: 21px;&quot;&gt;Business&lt;br style=&quot;font-size: 21px;&quot;&gt;Interface Layer&lt;/font&gt;&lt;/b&gt;" style="text;html=1;align=center;verticalAlign=middle;resizable=0;points=[];autosize=1;strokeColor=none;fillColor=none;fontFamily=Georgia;fontSize=21;" parent="1" vertex="1">
          <mxGeometry x="320" y="240" width="190" height="60" as="geometry" />
        </mxCell>
        <mxCell id="0L0Ir-lksVrym1sluejJ-34" value="&lt;b style=&quot;font-size: 21px;&quot;&gt;&lt;font style=&quot;font-size: 21px;&quot;&gt;Business&lt;br style=&quot;font-size: 21px;&quot;&gt;Entity&amp;nbsp;&lt;/font&gt;&lt;/b&gt;&lt;div&gt;&lt;b style=&quot;font-size: 21px;&quot;&gt;&lt;font style=&quot;font-size: 21px;&quot;&gt;Library&lt;/font&gt;&lt;/b&gt;&lt;/div&gt;" style="text;html=1;align=center;verticalAlign=middle;resizable=0;points=[];autosize=1;strokeColor=none;fillColor=none;fontFamily=Georgia;fontSize=21;" parent="1" vertex="1">
          <mxGeometry x="655" y="325" width="120" height="90" as="geometry" />
        </mxCell>
        <mxCell id="iE1TF2KJmge7Od6Kz5uu-12" value="&lt;font style=&quot;font-size: 21px;&quot;&gt;&lt;b style=&quot;font-size: 21px;&quot;&gt;Data Source&lt;/b&gt;&lt;/font&gt;" style="text;html=1;align=center;verticalAlign=middle;resizable=0;points=[];autosize=1;strokeColor=none;fillColor=none;fontFamily=Georgia;fontSize=21;" parent="1" vertex="1">
          <mxGeometry x="387.5" y="695" width="150" height="40" as="geometry" />
        </mxCell>
        <mxCell id="iE1TF2KJmge7Od6Kz5uu-44" value="&lt;font style=&quot;font-size: 16px;&quot;&gt;Keep Fit &quot;Intelligent Fitness Butler System Architecture&lt;/font&gt;" style="text;html=1;align=center;verticalAlign=middle;resizable=0;points=[];autosize=1;strokeColor=none;fillColor=none;fontFamily=Georgia;" parent="1" vertex="1">
          <mxGeometry x="256.87" y="10" width="420" height="30" as="geometry" />
        </mxCell>
      </root>
    </mxGraphModel>
  </diagram>
</mxfile>
